<?xml version="1.0" standalone="no"?>
<!DOCTYPE svg PUBLIC "-//W3C//DTD SVG 20010904//EN"
 "http://www.w3.org/TR/2001/REC-SVG-20010904/DTD/svg10.dtd">
<svg version="1.0" xmlns="http://www.w3.org/2000/svg"
 width="512.000000pt" height="512.000000pt" viewBox="0 0 512.000000 512.000000"
 preserveAspectRatio="xMidYMid meet">
<metadata>
Created by potrace 1.11, written by Peter Selinger 2001-2013
</metadata>
<g transform="translate(0.000000,512.000000) scale(0.100000,-0.100000)"
fill="#000000" stroke="none">
<path d="M630 5104 c-77 -17 -155 -46 -230 -88 -72 -40 -81 -48 -171 -136 -90
-89 -146 -181 -191 -310 l-33 -95 0 -1500 c0 -825 3 -1516 7 -1535 4 -19 10
-48 13 -65 11 -57 67 -175 115 -243 131 -187 318 -302 543 -336 29 -5 557 -9
678 -6 15 0 17 22 17 195 l1 195 -52 0 c-29 0 -167 1 -307 1 -140 0 -277 5
-305 10 -155 29 -285 160 -312 314 -5 28 -8 685 -8 1480 2 1537 -1 1440 52
1540 26 49 105 128 153 153 91 46 90 46 775 48 635 2 651 1 687 -18 35 -20 52
-20 123 -2 52 13 142 20 252 19 150 0 146 -8 44 89 -30 28 -64 60 -75 71 -34
33 -158 129 -201 156 -22 14 -65 36 -95 50 l-55 24 -680 1 c-548 2 -693 -1
-745 -12z"/>
<path d="M2279 4526 c-2 -2 -26 -7 -53 -10 -107 -15 -255 -81 -346 -155 -166
-135 -252 -281 -296 -501 -10 -48 -11 -3090 -2 -3165 40 -316 258 -571 570
-667 l73 -22 1082 -3 c1122 -4 1157 -2 1274 38 249 86 423 268 511 534 l23 70
3 1175 c3 1297 6 1221 -60 1340 -17 30 -60 93 -96 140 -84 109 -948 973 -1067
1067 -105 84 -208 139 -285 153 -50 9 -1322 15 -1331 6z m1338 -395 c28 -3 82
-64 97 -109 23 -71 25 -102 27 -420 l1 -294 27 -51 c22 -43 37 -57 81 -79 l55
-27 320 -4 c176 -2 331 -7 345 -10 77 -20 133 -68 147 -125 5 -22 9 -497 8
-1162 -1 -942 -3 -1132 -15 -1170 -41 -128 -132 -222 -260 -266 -53 -18 -101
-19 -1110 -18 l-1055 0 -58 23 c-112 44 -193 129 -237 251 -20 54 -20 77 -17
1610 l2 1555 32 67 c57 121 170 208 292 225 43 6 1268 10 1318 4z"/>
<path d="M3750 2724 c-110 -29 -157 -62 -320 -221 -135 -133 -151 -151 -120
-143 19 6 51 10 70 9 49 -2 151 -28 177 -45 22 -14 26 -11 95 56 90 86 141
113 217 113 160 0 248 -161 171 -313 -30 -59 -524 -549 -578 -573 -88 -38
-171 -30 -241 26 -59 47 -126 50 -171 10 -32 -28 -49 -78 -42 -121 5 -33 84
-106 147 -136 80 -38 130 -48 219 -45 113 4 190 32 281 99 90 68 559 550 592
610 82 148 90 295 24 435 -53 113 -158 202 -279 238 -65 19 -171 19 -242 1z"/>
<path d="M3239 2169 c-73 -10 -143 -37 -210 -82 -30 -20 -167 -150 -304 -289
-194 -195 -258 -267 -282 -313 -103 -197 -78 -400 67 -546 157 -159 395 -177
590 -47 64 43 295 273 265 264 -57 -17 -159 -6 -238 25 l-49 19 -51 -51 c-29
-28 -74 -62 -102 -75 -188 -89 -362 89 -275 281 26 57 488 519 549 549 86 42
184 30 251 -31 28 -26 94 -39 130 -25 54 21 85 82 73 144 -7 37 -63 90 -132
126 -92 48 -181 64 -282 51z"/>
</g>
</svg>
